<svg version="1.2" xmlns="http://www.w3.org/2000/svg" viewBox="0 0 862 278" width="862" height="278">
	<style>
		.s0 { fill: #6a3093 } 
		.s1 { fill: #b36ec7 } 
		.s2 { fill: #633290 } 
		.s3 { fill: #6c3097 } 
		.s4 { fill: #6d3096 } 
		.s5 { fill: #6d3197 } 
		.s6 { fill: #7f49a2 } 
		.s7 { fill: #7b42a0 } 
		.s8 { fill: #37165f } 
		.s9 { fill: #381660 } 
		.s10 { fill: #38175f } 
		.s11 { fill: #38175e } 
		.s12 { fill: #38165f } 
		.s13 { fill: #38165e } 
		.s14 { fill: #6a2e95 } 
		.s15 { fill: #39175e } 
		.s16 { fill: #773d9e } 
		.s17 { fill: #5d318a } 
		.s18 { fill: #9b59b5 } 
		.s19 { fill: #924daf } 
		.s20 { fill: #341b5f } 
		.s21 { fill: #ddcce5 } 
		.s22 { fill: #2f155c } 
		.s23 { fill: #4c2278 } 
		.s24 { fill: #c99ed3 } 
		.s25 { fill: #341265 } 
		.s26 { fill: #a260bc } 
		.s27 { fill: #fdfdfd } 
		.s28 { fill: #fcfcfd } 
		.s29 { fill: #fbfafb } 
		.s30 { fill: #ece9ef } 
		.s31 { fill: #f8f7f9 } 
	</style>
	<path class="s0" d="m238 19.64c6.03 5.77 15.33 16.02 8.47 23.32q-11.05 18.17-19.59 39.56c-6.99 12.33-19.44 31.9-35.47 26.15l-3.4 1.12c-35.44-20.5-78.7-28.5-118.29-16.44l-3.26-1.64c52.24-47.35 91.5-109.93 171.54-72.07z"/>
	<path class="s1" d="m136.35 204.06c-22.63-17.6-9.35-23.9 12.48-27.49 30.18-4.96 58.97-2.67 84.93 14.77q14.07 4.45 25.41 19.08l1.64-1.2c-4-5.29-9.13-12.31 0.48-11.51 2.22 3.35 20.99 30.02 19.04 31.79-1.16 1.05-24.32-6.06-30.63-6.41-18.61-1.04-44.69 3.5-60.41 2.18-5.04 5.13-19.97 2.9-21.18-4.24-3.64 5.73-12.63 2.18-12.71-4.24q-9.51-4.91-19.23-9.24l0.17-3.47z"/>
	<path class="s2" d="m64.35 108.67c6.66-1.7 16.63 11.31 12.71 16.96q-4.85 8.04-17.06 12.76c-28.15 17.3-39.61 62.77-16.82 86.87 5.7-1.75 7.98 1.72 4.24 6.36q8.01 13.44 25.14 22.18c4.95 9.32-1.67 11.75-10.31 9.62-58.26-22.1-78.44-94.94-29.65-137.78 2.46-3.79 5.67-6.86 9.3-9.5 5.74-4.18 17.55-12.08 22.47-7.46z"/>
	<path class="s3" d="m423.81 168.55c61.45-10.21 65.5 85.12 0 75.25-44.11-6.64-42.62-68.17 0-75.25z"/>
	<path class="s4" d="m514.94 168.55c55.2-5.85 59.25 69.76 11.92 75.57-56.07 6.89-60.06-70.47-11.92-75.57z"/>
	<path class="s5" d="m572.59 242.21c-2.54-2.62-2.59-72.07 1.06-72.07h38.12c34.5 0 34.5 72.07 0 72.07-5.46 0-37.81 1.41-39.18 0z"/>
	<path class="s6" d="m136.35 102.31c20.73 3.51 48.48 17.55 65.65 29.68 5.24 4.5 0.63 20.88-6.35 21.2l-6.69 0.78c-31.42-19.79-68.1-35.04-105.54-25.71l-6.36-2.63-12.71-16.96 3.74-5.72c23.12-9.41 44.66-5.68 68.26-0.64z"/>
	<path class="s7" d="m282.47 64.15c7.52 17.12 8.58 25.86 8.47 44.52q-3.34 6.93-12.46 12.57l-17.24 21.99q-9.78 14.3-19.01 9.95c-5.94 1.84-16.75-11.3-14.82-16.96l-0.8-5.01c10.56-11.39 16.64-26.45 19.52-41.57l4.57-2.18c2.24-7.54 19.64-21.89 26.82-24.95l4.94 1.63z"/>
	<path class="s8" d="m571.53 76.87c7.3 1.55 14.75 11.26 15.49 18.59 1.88 18.52-12.23 23.54-12.46 24.99-0.7 4.57 15.48 20.71 12.85 24.23-11.44 15.25-25.2-17.18-28.45-19.19-19.09-11.8-8.58 13.15-12.12 18.87-1.68 2.72-14.49 3.54-14.49-0.71v-66.77c11.42 1.64 28.63-2.24 39.18-0.01z"/>
	<path class="s9" d="m382 76.87c1 0.97-0.04 12.72-3.18 12.72h-30.71c-0.74 0-0.74 14.84 0 14.84h29.65c0.64 0 0.64 12.72 0 12.72h-29.65c-0.74 0-0.74 14.84 0 14.84h33.88c0.37 2.7 0.56 14.84-3.18 14.84h-42.35c-0.22 0-3.18-2.95-3.18-3.18v-66.77c6.64 1.27 46.96-1.7 48.71 0z"/>
	<path class="s10" d="m648.83 76.87c1 0.97-0.04 12.72-3.18 12.72h-30.71c-0.74 0-0.74 14.84 0 14.84h29.65c0.64 0 0.64 12.72 0 12.72h-29.65c-0.74 0-0.74 14.84 0 14.84h33.88c0.37 2.7 0.56 14.84-3.18 14.84h-42.35c-0.22 0-3.18-2.95-3.18-3.18v-66.77c6.64 1.27 46.96-1.7 48.71 0z"/>
	<path class="s11" d="m847.88 144.69c-11.64 9.39-19.57-12.14-22.11-12.86-1.59-0.45-28.12-0.54-29.48 0.02-1.29 0.53-7.78 22.93-20.39 12.82-2.84-2.28 26.29-65.34 29.73-66.54 6.66-2.32 10.89-2.98 16.66 2.11 2.6 2.3 28.3 62.26 25.6 64.44z"/>
	<path class="s12" d="m422.28 95.93c6.16 2.46 18.32-29.85 31.71-19.05 3.21 2.59-19.1 26.27-18.93 32.85 0.13 4.92 23.69 32.91 21.05 34.96-15.29 11.9-30-24.64-33.83-23.3-2.06 0.72-15.31 36.2-31.79 23.3-3.91-3.06 23.07-28 23.18-34.96 0.11-6.96-24.84-29.91-21.07-32.85 16.58-12.93 27.83 18.31 29.68 19.05z"/>
	<path class="s10" d="m503.77 76.87c15.07 3.32 21.61 20.52 15.38 34.49-8.21 18.43-36.13 12.78-37.63 14.25-0.93 0.92 0.96 18.18 0.02 19.1-0.53 0.52-14.84 0.73-14.84-0.01v-67.83c10.73 1.58 27.22-2.17 37.07 0z"/>
	<path class="s13" d="m735.88 89.81c-11.12 16.8 46.81 11.18 34.16 43.75-8.08 20.8-50.06 11-51.5 3.51-4.47-23.35 33.27 7.95 38.14-8.5 4.35-14.71-43.69-6.09-35.38-39.56 5.46-21.98 46.64-12.85 48.13-4.74 3.11 17.03-28.2-2.53-33.55 5.56z"/>
	<path class="s14" d="m380.94 170.14c2.68 1.21 3.57 4.56 3.29 7.36-1.29 12.66-31.84 5.26-34.01 7.47-0.6 0.61-0.6 16.38 0 16.98 1.88 1.91 41.35-6.42 26.62 12.84-3.57 4.66-25.04 0.39-26.62 1.97-1.02 1.03 1.04 24.46 0.02 25.46-0.6 0.6-16.95 0.84-16.95-0.01v-72.07c9.57 2.18 41.19-2.92 47.65 0z"/>
	<path class="s15" d="m705.39 139.84c-19.53 21.03-65.5-8.84-40.51-14.17 1.7-0.36 30.52 19.46 30.58 1 0.04-12.36-37.79-5.32-35.97-33.67 1.52-23.56 43.34-20.8 47.71-9.8 7.16 18.01-33.07-5.04-33.01 11.69 0.03 8.51 57.08 17.07 31.2 44.95z"/>
	<path class="s16" d="m161.76 229.49c4.7 1.48 9.23 2.65 14.24 2.12l2.7 4.24c-33.38 33.97-70.63 44.94-116.47 27.56 22.46-3.08-9.42-20.27-15.88-27.56-2.8-3.16-6.02-4.65 1.06-4.24l5.93 0.51c27.36 29.17 75.07 22.99 102.65-2.79 0 0 5.77 0.15 5.77 0.16z"/>
	<path class="s17" d="m290.94 108.67c-0.02 4.09 0.47 8.78 0 12.72l-2.12 4.24c-3.05 16.66-12.45 43.48-29.65 50.87-8.14-3.49-16.97-14.24-16.94-23.32 20.9-8.85 26.69-38.84 48.71-44.52z"/>
	<path class="s18" d="m261.29 197.7c-7.48 8.29 14.11 19.77 10.56 23.32-0.96 0.96-11.02-9.32-12.68-10.6-18.5-18.6-39.14-35.02-60.52-50.17l-3.02-7.06 6.35-21.2c24.27 17.14 43.03 41.17 59.31 65.71z"/>
	<path class="s19" d="m282.47 64.15l-31.77 23.32c-5.35-8.36-7.26-29.6-2.12-38.16l-2.12-4.24c-1.92-0.39-1.84-1.11 0-2.12-1.93-8.42-5.99-15.21-8.47-23.32 18.14 8.58 36.31 25.94 44.48 44.52z"/>
	<path class="s20" d="m191.41 108.67c10.36-0.83 29.77 14.34 36.44 22.23l-0.44 5.33c4.74 4.47 10.5 11.77 14.82 16.96 6.17 7.39 11.92 15.09 16.94 23.32-0.57 0.24-2.08 4.38-3.16 4.2-3.18-0.54-32.54-40.34-42.32-48.76-36.14-31.08-73.43-45.53-121.82-40.23-5.81 7.05-26.62 12.57-33.88 6.36 1.77-1.59 6.66-5.61 8.47-6.36 37.88-15.66 90.67-2.93 124.94 16.96z"/>
	<path class="s21" d="m91.88 91.71l44.47 10.6c-28.32-4.79-45.39-2.79-72 6.36-12.32 4.24-21.83 8.24-31.77 16.96 3.11-9.86 15.93-18.05 25.39-21.23l-4.22-2.11c-0.08-2.51 2.91-3.02 4.24-4.22 11.71-1.15 21.78-5.03 33.89-6.36z"/>
	<path class="s22" d="m189.29 225.25c-2.04 5.05-7.36 7.31-10.59 10.6-5.32-0.2-17.85 1.56-16.94-6.36-3.94-4.61 1.51-8.59 6.35-8.48 5.45 0.89 18.58 4.02 21.18 4.24z"/>
	<path class="s7" d="m288.82 125.62l2.12-4.24c-0.39 3.32-2.08 4.01-2.12 4.24z"/>
	<path class="s23" d="m246.47 42.95c0.15 0.67-0.13 1.44 0 2.12l2.12 4.24c1.75 11.95 3.44 26.19 2.12 38.16-1.68 15.23-11.16 38.56-23.29 48.75-7.71-7.27-27.02-22.35-36-27.56 28.13-6.42 35.68-38.77 46.37-60.63 2.26-4.62 3.29-5.66 8.69-5.08z"/>
	<path class="s24" d="m206.22 19.66c-26.5-2.9-53.78 47.41-65.72 51.94-34.47 13.09 8.08-45.17 39.78-51.45 8.26-1.64 17.54 0.04 25.94-0.49z"/>
	<path class="s25" d="m195.64 153.18c23.3 14.97 47.14 35.06 63.53 57.23-8.45-6.49-16.68-12.92-25.41-19.08q-41.31-24.89-86.55-39.48c-50.34-8.64-31.71 31.6-10.86 52.2 5.44 4.93 15.94 6.58 19.06 12.72-23.08-5.75-54.77-15.24-65.39-39.48-3.56-8.12-4.31-27.71-5.59-28.39-3.27-1.74-25.18 8.15-29.25 11-22.63 15.81-24.4 42.34-12.01 65.35-2.53 5.48-5.4-0.47-6.78-2.76-23.16-38.5-0.44-84.25 40.66-96.87 42.79-13.14 83.17 4.79 118.59 27.56z"/>
	<path class="s26" d="m233.76 191.34c-24.92-9.61-43.33-14.73-70.7-12.01-19.48 1.93-49.95 3.68-26.72 24.73-20.06-10.6-43.34-52.89-7.17-57.06 34.97-4.03 77.68 25.36 104.59 44.34z"/>
	<path class="s27" d="m428.08 183.31c32.43-5.34 34.33 43.45 7.68 46.12-29.52 2.96-32.64-42-7.68-46.12z"/>
	<path class="s27" d="m517.05 183.27c30.69-4.36 33.05 42.32 7.71 46.14-30.18 4.55-34.57-42.32-7.71-46.14z"/>
	<path class="s28" d="m587.41 184.98c6.81-6.81 34.66 0.08 34.09 22.27-0.68 26.29-34.09 24.3-34.09 19.07 0-5.5-1.46-39.87 0-41.34z"/>
	<path class="s29" d="m547.17 110.8c-0.75-0.75-0.75-20.47 0-21.22 1.36-1.36 26.57-3.92 24.83 11.39-1.3 11.39-22.44 12.21-24.83 9.83z"/>
	<path class="s30" d="m822.47 119.25c-0.73 0.61-18.31 0.61-19.04 0-0.96-0.81 7.59-23.25 9.52-23.25 1.93 0 10.48 22.44 9.52 23.25z"/>
	<path class="s31" d="m481.52 112.92c-0.83-0.82-0.83-22.52 0-23.34 1.6-1.6 26.24-3.78 25.36 11.51-0.71 12.33-22.37 14.82-25.36 11.83z"/>
	<path class="s0" d="m248.58 49.31c-1.95-0.83-1.79-2.54-2.12-4.24 1.99 0.77 1.87 2.53 2.12 4.24z"/>
</svg>